Mailpile-Regular.ufo
<glyph name="exclam" format="1">
  <advance width="575"/>
  <unicode hex="0021"/>
  <outline>
    <contour>
      <point x="212" y="1495" type="line"/>
      <point x="238" y="360" type="line"/>
      <point x="347" y="360" type="line"/>
      <point x="381" y="1495" type="line"/>
    </contour>
    <contour>
      <point x="226" y="201"/>
      <point x="177" y="151"/>
      <point x="177" y="90" type="curve" smooth="yes"/>
      <point x="177" y="32"/>
      <point x="228" y="-17"/>
      <point x="286" y="-17" type="curve" smooth="yes"/>
      <point x="347" y="-17"/>
      <point x="395" y="30"/>
      <point x="395" y="90" type="curve" smooth="yes"/>
      <point x="395" y="151"/>
      <point x="347" y="201"/>
      <point x="286" y="201" type="curve" smooth="yes"/>
    </contour>
  </outline>
</glyph>
<glyph name="dollar" format="1">
  <advance width="1116"/>
  <unicode hex="0024"/>
  <outline>
    <contour>
      <point x="254" y="1528"/>
      <point x="63" y="1389"/>
      <point x="63" y="1150" type="curve" smooth="yes"/>
      <point x="63" y="887"/>
      <point x="284" y="790"/>
      <point x="520" y="703" type="curve" smooth="yes"/>
      <point x="687" y="642"/>
      <point x="881" y="571"/>
      <point x="881" y="370" type="curve" smooth="yes"/>
      <point x="881" y="212"/>
      <point x="711" y="114"/>
      <point x="550" y="114" type="curve" smooth="yes"/>
      <point x="338" y="114"/>
      <point x="208" y="250"/>
      <point x="139" y="375" type="curve"/>
      <point x="11" y="307" type="line"/>
      <point x="103" y="115"/>
      <point x="280" y="-21"/>
      <point x="539" y="-21" type="curve" smooth="yes"/>
      <point x="801" y="-21"/>
      <point x="1030" y="139"/>
      <point x="1030" y="397" type="curve" smooth="yes"/>
      <point x="1030" y="696"/>
      <point x="779" y="764"/>
      <point x="565" y="845" type="curve" smooth="yes"/>
      <point x="361" y="923"/>
      <point x="213" y="991"/>
      <point x="213" y="1158" type="curve" smooth="yes"/>
      <point x="213" y="1321"/>
      <point x="355" y="1393"/>
      <point x="540" y="1393" type="curve" smooth="yes"/>
      <point x="642" y="1393"/>
      <point x="739" y="1374"/>
      <point x="808" y="1340" type="curve" smooth="yes"/>
      <point x="856" y="1316"/>
      <point x="870" y="1289"/>
      <point x="870" y="1230" type="curve" smooth="yes"/>
      <point x="870" y="1171" type="line"/>
      <point x="998" y="1168" type="line"/>
      <point x="997" y="1264" type="line"/>
      <point x="996" y="1369"/>
      <point x="947" y="1420"/>
      <point x="883" y="1457" type="curve" smooth="yes"/>
      <point x="783" y="1515"/>
      <point x="638" y="1528"/>
      <point x="550" y="1528" type="curve" smooth="yes"/>
    </contour>
    <contour>
      <point x="504" y="1623" type="line"/>
      <point x="504" y="-133" type="line"/>
      <point x="640" y="-133" type="line"/>
      <point x="640" y="1623" type="line"/>
    </contour>
  </outline>
</glyph>
<glyph name="ampersand" format="1">
  <advance width="1362"/>
  <unicode hex="0026"/>
  <outline>
    <contour>
      <point x="416" y="1522"/>
      <point x="283" y="1402"/>
      <point x="283" y="1225" type="curve" smooth="yes"/>
      <point x="283" y="1094"/>
      <point x="384" y="948"/>
      <point x="470" y="845" type="curve"/>
      <point x="285" y="754"/>
      <point x="80" y="577"/>
      <point x="80" y="369" type="curve" smooth="yes"/>
      <point x="80" y="105"/>
      <point x="281" y="-35"/>
      <point x="541" y="-35" type="curve" smooth="yes"/>
      <point x="734" y="-35"/>
      <point x="871" y="31"/>
      <point x="992.999" y="184" type="curve"/>
      <point x="1132" y="-0.999999" type="line"/>
      <point x="1294" y="-0.999999" type="line"/>
      <point x="1060" y="295" type="line"/>
      <point x="1130" y="410"/>
      <point x="1148" y="502"/>
      <point x="1166" y="644" type="curve"/>
      <point x="1054" y="681" type="line"/>
      <point x="1040" y="571"/>
      <point x="1035" y="492"/>
      <point x="980.999" y="397" type="curve"/>
      <point x="672" y="816" type="line"/>
      <point x="836" y="921"/>
      <point x="917" y="1020"/>
      <point x="917" y="1231" type="curve" smooth="yes"/>
      <point x="917" y="1427"/>
      <point x="732" y="1522"/>
      <point x="596" y="1522" type="curve" smooth="yes"/>
    </contour>
    <contour>
      <point x="917" y="284" type="line"/>
      <point x="821" y="163"/>
      <point x="708" y="81"/>
      <point x="551" y="81" type="curve" smooth="yes"/>
      <point x="364" y="81"/>
      <point x="213" y="159"/>
      <point x="213" y="361" type="curve" smooth="yes"/>
      <point x="213" y="517"/>
      <point x="399" y="680"/>
      <point x="550" y="750" type="curve"/>
    </contour>
    <contour>
      <point x="679" y="1406"/>
      <point x="785" y="1343"/>
      <point x="794" y="1232" type="curve"/>
      <point x="800" y="1093"/>
      <point x="705" y="977"/>
      <point x="593" y="909" type="curve"/>
      <point x="552" y="956"/>
      <point x="404" y="1091"/>
      <point x="404" y="1226" type="curve" smooth="yes"/>
      <point x="404" y="1329"/>
      <point x="481" y="1406"/>
      <point x="591" y="1406" type="curve" smooth="yes"/>
    </contour>
  </outline>
</glyph>
<glyph name="parenleft" format="1">
  <advance width="650"/>
  <unicode hex="0028"/>
  <outline>
    <contour>
      <point x="215" y="1472"/>
      <point x="105" y="1121"/>
      <point x="105" y="748" type="curve" smooth="yes"/>
      <point x="105" y="360"/>
      <point x="202" y="76"/>
      <point x="460" y="-151" type="curve"/>
      <point x="539" y="-46" type="line"/>
      <point x="323" y="132"/>
      <point x="224" y="422"/>
      <point x="226" y="747" type="curve"/>
      <point x="226" y="1064"/>
      <point x="320" y="1343"/>
      <point x="535" y="1522" type="curve"/>
      <point x="475" y="1640" type="line"/>
    </contour>
  </outline>
</glyph>
<glyph name="plus" format="1">
  <advance width="1196"/>
  <unicode hex="002B"/>
  <outline>
    <contour>
      <point x="530" y="1182" type="line"/>
      <point x="530" y="830" type="line"/>
      <point x="181" y="830" type="line"/>
      <point x="181" y="699" type="line"/>
      <point x="530" y="699" type="line"/>
      <point x="530" y="345" type="line"/>
      <point x="664" y="345" type="line"/>
      <point x="664" y="699" type="line"/>
      <point x="1013" y="699" type="line"/>
      <point x="1013" y="830" type="line"/>
      <point x="664" y="830" type="line"/>
      <point x="664" y="1182" type="line"/>
    </contour>
  </outline>
</glyph>
<glyph name="two" format="1">
  <advance width="1258"/>
  <unicode hex="0032"/>
  <outline>
    <contour>
      <point x="398" y="1532"/>
      <point x="195" y="1412"/>
      <point x="163" y="1213" type="curve" smooth="yes"/>
      <point x="157" y="1175"/>
      <point x="159" y="1138"/>
      <point x="159" y="1100" type="curve"/>
      <point x="295" y="1100" type="line"/>
      <point x="295" y="1127"/>
      <point x="296" y="1155"/>
      <point x="301" y="1181" type="curve" smooth="yes"/>
      <point x="331" y="1330"/>
      <point x="472" y="1405"/>
      <point x="626" y="1405" type="curve" smooth="yes"/>
      <point x="807" y="1405"/>
      <point x="952" y="1319"/>
      <point x="952" y="1155" type="curve" smooth="yes"/>
      <point x="952" y="999"/>
      <point x="860" y="885"/>
      <point x="723" y="743" type="curve"/>
      <point x="723" y="743"/>
      <point x="212" y="194"/>
      <point x="193" y="175" type="curve" smooth="yes"/>
      <point x="149" y="131"/>
      <point x="131" y="90"/>
      <point x="139" y="53" type="curve" smooth="yes"/>
      <point x="147" y="16"/>
      <point x="171" y="-3"/>
      <point x="210" y="-3" type="curve" smooth="yes"/>
      <point x="1122" y="-3" type="line"/>
      <point x="1122" y="257" type="line"/>
      <point x="985.999" y="257" type="line"/>
      <point x="985.999" y="127" type="line"/>
      <point x="336" y="130" type="line"/>
      <point x="811" y="652" type="line" smooth="yes"/>
      <point x="963" y="819"/>
      <point x="1082" y="961"/>
      <point x="1082" y="1156" type="curve" smooth="yes"/>
      <point x="1082" y="1404"/>
      <point x="895" y="1532"/>
      <point x="625" y="1532" type="curve" smooth="yes"/>
    </contour>
  </outline>
</glyph>
<glyph name="five" format="1">
  <advance width="1245"/>
  <unicode hex="0035"/>
  <outline>
    <contour>
      <point x="323" y="1495" type="line"/>
      <point x="222" y="792" type="line"/>
      <point x="306" y="721" type="line"/>
      <point x="432" y="794"/>
      <point x="541" y="827"/>
      <point x="643" y="827" type="curve" smooth="yes"/>
      <point x="832" y="827"/>
      <point x="992" y="712"/>
      <point x="992" y="466" type="curve" smooth="yes"/>
      <point x="992" y="190"/>
      <point x="782" y="105"/>
      <point x="632" y="105" type="curve" smooth="yes"/>
      <point x="452" y="105"/>
      <point x="311" y="217"/>
      <point x="265" y="405" type="curve"/>
      <point x="147" y="349" type="line"/>
      <point x="213" y="112"/>
      <point x="391" y="-20"/>
      <point x="632" y="-20" type="curve" smooth="yes"/>
      <point x="849" y="-20"/>
      <point x="1130" y="89"/>
      <point x="1130" y="467" type="curve" smooth="yes"/>
      <point x="1130" y="789"/>
      <point x="917" y="953"/>
      <point x="662" y="953" type="curve" smooth="yes"/>
      <point x="575.45" y="953"/>
      <point x="483.09" y="933.91"/>
      <point x="373.578" y="885.899" type="curve"/>
      <point x="446" y="1365" type="line"/>
      <point x="917" y="1365" type="line"/>
      <point x="915" y="1235" type="line"/>
      <point x="1051" y="1235" type="line"/>
      <point x="1051" y="1495" type="line"/>
    </contour>
  </outline>
</glyph>
<glyph name="nine" format="1">
  <advance width="1282"/>
  <unicode hex="0039"/>
  <outline>
    <contour>
      <point x="347" y="1530"/>
      <point x="124" y="1353"/>
      <point x="124" y="1054" type="curve" smooth="yes"/>
      <point x="124" y="772"/>
      <point x="324" y="577"/>
      <point x="586" y="577" type="curve" smooth="yes"/>
      <point x="743.367" y="577"/>
      <point x="885.489" y="648.987"/>
      <point x="996" y="753.212" type="curve"/>
      <point x="996" y="338"/>
      <point x="824" y="114"/>
      <point x="545" y="114" type="curve" smooth="yes"/>
      <point x="443" y="114"/>
      <point x="337" y="152"/>
      <point x="225" y="228" type="curve"/>
      <point x="153" y="110" type="line"/>
      <point x="290" y="23"/>
      <point x="423" y="-20.9999"/>
      <point x="553" y="-20.9999" type="curve" smooth="yes"/>
      <point x="925" y="-20.9999"/>
      <point x="1139" y="250"/>
      <point x="1138" y="823" type="curve"/>
      <point x="1138" y="1224"/>
      <point x="988" y="1530"/>
      <point x="619" y="1530" type="curve" smooth="yes"/>
    </contour>
    <contour>
      <point x="858.332" y="1395"/>
      <point x="987.268" y="1158.35"/>
      <point x="987.005" y="897.225" type="curve"/>
      <point x="883.629" y="793.114"/>
      <point x="742.569" y="712"/>
      <point x="599" y="712" type="curve" smooth="yes"/>
      <point x="415" y="712"/>
      <point x="276" y="837"/>
      <point x="275" y="1051" type="curve"/>
      <point x="275" y="1258"/>
      <point x="404" y="1395"/>
      <point x="623" y="1395" type="curve" smooth="yes"/>
    </contour>
  </outline>
</glyph>
<glyph name="B" format="1">
  <advance width="1243"/>
  <unicode hex="0042"/>
  <outline>
    <contour>
      <point x="100" y="1495" type="line"/>
      <point x="100" y="1365" type="line"/>
      <point x="237" y="1365" type="line"/>
      <point x="237" y="0" type="line"/>
      <point x="698" y="0" type="line" smooth="yes"/>
      <point x="994" y="0"/>
      <point x="1146" y="199"/>
      <point x="1146" y="420" type="curve" smooth="yes"/>
      <point x="1146" y="612.504"/>
      <point x="1024.25" y="735.347"/>
      <point x="876.703" y="772.619" type="curve"/>
      <point x="1016.55" y="830.205"/>
      <point x="1080" y="972.567"/>
      <point x="1080" y="1101" type="curve" smooth="yes"/>
      <point x="1080" y="1376"/>
      <point x="905" y="1495"/>
      <point x="626" y="1495" type="curve" smooth="yes"/>
    </contour>
    <contour>
      <point x="867" y="694"/>
      <point x="1004" y="621"/>
      <point x="1004" y="423" type="curve" smooth="yes"/>
      <point x="1004" y="235"/>
      <point x="890" y="129"/>
      <point x="695" y="129" type="curve" smooth="yes"/>
      <point x="383" y="129" type="line"/>
      <point x="383" y="694" type="line"/>
      <point x="658" y="694" type="line" smooth="yes"/>
    </contour>
    <contour>
      <point x="833" y="1365"/>
      <point x="936" y="1276"/>
      <point x="936" y="1102" type="curve" smooth="yes"/>
      <point x="936" y="943"/>
      <point x="826" y="824"/>
      <point x="658" y="824" type="curve" smooth="yes"/>
      <point x="382" y="824" type="line"/>
      <point x="382" y="1365" type="line"/>
      <point x="616" y="1365" type="line" smooth="yes"/>
    </contour>
  </outline>
</glyph>
<glyph name="H" format="1">
  <advance width="1551"/>
  <unicode hex="0048"/>
  <outline>
    <contour>
      <point x="1220" y="1495" type="line" smooth="yes"/>
      <point x="1177" y="1495"/>
      <point x="1156" y="1476"/>
      <point x="1156" y="1433" type="curve" smooth="yes"/>
      <point x="1156" y="825" type="line"/>
      <point x="391" y="825" type="line"/>
      <point x="391" y="1433" type="line" smooth="yes"/>
      <point x="391" y="1476"/>
      <point x="372" y="1495"/>
      <point x="329" y="1495" type="curve" smooth="yes"/>
      <point x="119" y="1495" type="line"/>
      <point x="119" y="1365" type="line"/>
      <point x="245" y="1365" type="line"/>
      <point x="245" y="0" type="line"/>
      <point x="392" y="0" type="line"/>
      <point x="392" y="695" type="line"/>
      <point x="1157" y="695" type="line"/>
      <point x="1157" y="0" type="line"/>
      <point x="1302" y="0" type="line"/>
      <point x="1302" y="1365" type="line"/>
      <point x="1429" y="1365" type="line"/>
      <point x="1429" y="1495" type="line"/>
    </contour>
  </outline>
</glyph>
<glyph name="S" format="1">
  <advance width="1185"/>
  <unicode hex="0053"/>
  <outline>
    <contour>
      <point x="324" y="1529"/>
      <point x="133" y="1390"/>
      <point x="133" y="1151" type="curve" smooth="yes"/>
      <point x="133" y="888"/>
      <point x="354" y="791"/>
      <point x="590" y="704" type="curve" smooth="yes"/>
      <point x="757" y="643"/>
      <point x="951" y="572"/>
      <point x="951" y="371" type="curve" smooth="yes"/>
      <point x="951" y="213"/>
      <point x="781" y="115"/>
      <point x="620" y="115" type="curve" smooth="yes"/>
      <point x="408" y="115"/>
      <point x="278" y="251"/>
      <point x="209" y="376" type="curve"/>
      <point x="81" y="308" type="line"/>
      <point x="173" y="116"/>
      <point x="350" y="-20"/>
      <point x="609" y="-20" type="curve" smooth="yes"/>
      <point x="871" y="-20"/>
      <point x="1100" y="140"/>
      <point x="1100" y="398" type="curve" smooth="yes"/>
      <point x="1100" y="697"/>
      <point x="849" y="765"/>
      <point x="635" y="846" type="curve" smooth="yes"/>
      <point x="431" y="924"/>
      <point x="283" y="992"/>
      <point x="283" y="1159" type="curve" smooth="yes"/>
      <point x="283" y="1322"/>
      <point x="425" y="1394"/>
      <point x="610" y="1394" type="curve" smooth="yes"/>
      <point x="712" y="1394"/>
      <point x="809" y="1375"/>
      <point x="878" y="1341" type="curve" smooth="yes"/>
      <point x="926" y="1317"/>
      <point x="940" y="1290"/>
      <point x="940" y="1231" type="curve" smooth="yes"/>
      <point x="940" y="1172" type="line"/>
      <point x="1068" y="1169" type="line"/>
      <point x="1067" y="1265" type="line"/>
      <point x="1066" y="1370"/>
      <point x="1017" y="1421"/>
      <point x="953" y="1458" type="curve" smooth="yes"/>
      <point x="853" y="1516"/>
      <point x="708" y="1529"/>
      <point x="620" y="1529" type="curve" smooth="yes"/>
    </contour>
    <contour>
      <point x="593" y="1495" type="move" name="top"/>
    </contour>
    <contour>
      <point x="593" y="0" type="move" name="bottom"/>
    </contour>
  </outline>
</glyph>
<glyph name="T" format="1">
  <advance width="1123"/>
  <unicode hex="0054"/>
  <outline>
    <contour>
      <point x="102" y="1494" type="line" smooth="yes"/>
      <point x="57" y="1494"/>
      <point x="38" y="1477"/>
      <point x="39" y="1432" type="curve"/>
      <point x="39" y="1235" type="line"/>
      <point x="175" y="1235" type="line"/>
      <point x="175" y="1365" type="line"/>
      <point x="488" y="1365" type="line"/>
      <point x="488" y="0" type="line"/>
      <point x="634" y="0" type="line"/>
      <point x="634" y="1365" type="line"/>
      <point x="948" y="1365" type="line"/>
      <point x="948" y="1235" type="line"/>
      <point x="1084" y="1235" type="line"/>
      <point x="1084" y="1432" type="line" smooth="yes"/>
      <point x="1084" y="1475"/>
      <point x="1063" y="1494"/>
      <point x="1020" y="1494" type="curve" smooth="yes"/>
    </contour>
    <contour>
      <point x="562" y="748" type="move" name="center"/>
    </contour>
    <contour>
      <point x="562" y="0" type="move" name="bottom"/>
    </contour>
    <contour>
      <point x="562" y="1495" type="move" name="top"/>
    </contour>
  </outline>
</glyph>
<glyph name="V" format="1">
  <advance width="1436"/>
  <unicode hex="0056"/>
  <outline>
    <contour>
      <point x="1203" y="1495" type="line" smooth="yes"/>
      <point x="1165" y="1495"/>
      <point x="1145" y="1478"/>
      <point x="1133" y="1442" type="curve"/>
      <point x="722" y="146" type="line"/>
      <point x="714" y="146" type="line"/>
      <point x="302" y="1442" type="line"/>
      <point x="292" y="1479"/>
      <point x="269" y="1495"/>
      <point x="231" y="1495" type="curve" smooth="yes"/>
      <point x="38" y="1495" type="line"/>
      <point x="38" y="1365" type="line"/>
      <point x="174" y="1365" type="line"/>
      <point x="610" y="0" type="line"/>
      <point x="823" y="0" type="line"/>
      <point x="1260" y="1365" type="line"/>
      <point x="1396" y="1365" type="line"/>
      <point x="1396" y="1495" type="line"/>
    </contour>
  </outline>
</glyph>
<glyph name="W" format="1">
  <advance width="2005"/>
  <unicode hex="0057"/>
  <outline>
    <contour>
      <point x="1773" y="1495" type="line" smooth="yes"/>
      <point x="1753" y="1495"/>
      <point x="1737" y="1491"/>
      <point x="1725" y="1482" type="curve" smooth="yes"/>
      <point x="1713" y="1473"/>
      <point x="1705" y="1460"/>
      <point x="1702" y="1442" type="curve"/>
      <point x="1701" y="1442" type="line"/>
      <point x="1430" y="146" type="line"/>
      <point x="1422" y="146" type="line"/>
      <point x="1113" y="1430" type="line" smooth="yes"/>
      <point x="1108" y="1451"/>
      <point x="1101" y="1467"/>
      <point x="1091" y="1478" type="curve" smooth="yes"/>
      <point x="1081" y="1489"/>
      <point x="1065" y="1495"/>
      <point x="1043" y="1495" type="curve" smooth="yes"/>
      <point x="961" y="1495" type="line" smooth="yes"/>
      <point x="940" y="1495"/>
      <point x="924" y="1489"/>
      <point x="914" y="1478" type="curve" smooth="yes"/>
      <point x="904" y="1467"/>
      <point x="897" y="1451"/>
      <point x="892" y="1430" type="curve" smooth="yes"/>
      <point x="585" y="146" type="line"/>
      <point x="574" y="146" type="line"/>
      <point x="302" y="1442" type="line" smooth="yes"/>
      <point x="298" y="1460"/>
      <point x="290" y="1473"/>
      <point x="278" y="1482" type="curve" smooth="yes"/>
      <point x="266" y="1491"/>
      <point x="251" y="1495"/>
      <point x="232" y="1495" type="curve" smooth="yes"/>
      <point x="39" y="1495" type="line"/>
      <point x="39" y="1365" type="line"/>
      <point x="175" y="1365" type="line"/>
      <point x="474" y="0" type="line"/>
      <point x="699" y="0" type="line"/>
      <point x="1002" y="1344" type="line"/>
      <point x="1306" y="0" type="line"/>
      <point x="1531" y="0" type="line"/>
      <point x="1830" y="1365" type="line"/>
      <point x="1966" y="1365" type="line"/>
      <point x="1966" y="1495" type="line"/>
    </contour>
    <contour>
      <point x="1003" y="1495" type="move" name="top"/>
    </contour>
  </outline>
</glyph>
<glyph name="bracketleft" format="1">
  <advance width="606"/>
  <unicode hex="005B"/>
  <outline>
    <contour>
      <point x="173" y="1625" type="line"/>
      <point x="173" y="-130" type="line"/>
      <point x="558" y="-130" type="line"/>
      <point x="558" y="0" type="line"/>
      <point x="311" y="0" type="line"/>
      <point x="311" y="1495" type="line"/>
      <point x="558" y="1495" type="line"/>
      <point x="558" y="1625" type="line"/>
    </contour>
  </outline>
</glyph>
<glyph name="j" format="1">
  <advance width="621"/>
  <unicode hex="006A"/>
  <outline>
    <contour>
      <point x="145" y="1084" type="line"/>
      <point x="145" y="960" type="line"/>
      <point x="322" y="960" type="line"/>
      <point x="322" y="-102" type="line" smooth="yes"/>
      <point x="322" y="-255"/>
      <point x="266" y="-353"/>
      <point x="127" y="-353" type="curve" smooth="yes"/>
      <point x="71" y="-353"/>
      <point x="17" y="-344"/>
      <point x="-37" y="-329" type="curve"/>
      <point x="-67" y="-448" type="line"/>
      <point x="-3" y="-465"/>
      <point x="61" y="-478"/>
      <point x="145" y="-478" type="curve" smooth="yes"/>
      <point x="311" y="-478"/>
      <point x="458" y="-357"/>
      <point x="458" y="-137" type="curve" smooth="yes"/>
      <point x="458" y="1018" type="line" smooth="yes"/>
      <point x="458" y="1039"/>
      <point x="453" y="1055"/>
      <point x="443" y="1066" type="curve" smooth="yes"/>
      <point x="433" y="1077"/>
      <point x="417" y="1084"/>
      <point x="395" y="1084" type="curve"/>
    </contour>
    <contour>
      <point x="332" y="1475"/>
      <point x="282" y="1430"/>
      <point x="282" y="1375" type="curve" smooth="yes"/>
      <point x="282" y="1325"/>
      <point x="330" y="1280"/>
      <point x="380" y="1280" type="curve" smooth="yes"/>
      <point x="433" y="1280"/>
      <point x="477" y="1323"/>
      <point x="477" y="1375" type="curve" smooth="yes"/>
      <point x="477" y="1430"/>
      <point x="435" y="1475"/>
      <point x="380" y="1475" type="curve" smooth="yes"/>
    </contour>
  </outline>
</glyph>
<glyph name="k" format="1">
  <advance width="1153"/>
  <unicode hex="006B"/>
  <outline>
    <contour>
      <point x="126" y="1371" type="line"/>
      <point x="258" y="1371" type="line"/>
      <point x="258" y="0" type="line"/>
      <point x="394" y="0" type="line"/>
      <point x="394" y="491" type="line"/>
      <point x="614" y="491" type="line"/>
      <point x="541" y="527" type="line"/>
      <point x="800" y="89" type="line" smooth="yes"/>
      <point x="818" y="58"/>
      <point x="838" y="38"/>
      <point x="856" y="23" type="curve" smooth="yes"/>
      <point x="874" y="8"/>
      <point x="901" y="0"/>
      <point x="937" y="0" type="curve" smooth="yes"/>
      <point x="1084" y="0" type="line"/>
      <point x="1084" y="124" type="line"/>
      <point x="998" y="124" type="line"/>
      <point x="980" y="125"/>
      <point x="963" y="129"/>
      <point x="947" y="136" type="curve" smooth="yes"/>
      <point x="931" y="143"/>
      <point x="912" y="157"/>
      <point x="900" y="177" type="curve" smooth="yes"/>
      <point x="634" y="630" type="line"/>
      <point x="623" y="569" type="line"/>
      <point x="1085" y="1084" type="line"/>
      <point x="913" y="1084" type="line"/>
      <point x="504" y="621" type="line"/>
      <point x="394" y="621" type="line"/>
      <point x="394" y="1431" type="line" smooth="yes"/>
      <point x="394" y="1452"/>
      <point x="389" y="1468"/>
      <point x="378" y="1479" type="curve" smooth="yes"/>
      <point x="367" y="1490"/>
      <point x="351" y="1495"/>
      <point x="330" y="1495" type="curve" smooth="yes"/>
      <point x="126" y="1495" type="line"/>
    </contour>
  </outline>
</glyph>
<glyph name="o" format="1">
  <advance width="1251"/>
  <unicode hex="006F"/>
  <outline>
    <contour>
      <point x="308" y="1104"/>
      <point x="58" y="893"/>
      <point x="58" y="541" type="curve" smooth="yes"/>
      <point x="58" y="224"/>
      <point x="274" y="-19"/>
      <point x="626" y="-19" type="curve" smooth="yes"/>
      <point x="944" y="-19"/>
      <point x="1194" y="190"/>
      <point x="1194" y="541" type="curve" smooth="yes"/>
      <point x="1194" y="859"/>
      <point x="978" y="1104"/>
      <point x="626" y="1104" type="curve" smooth="yes"/>
    </contour>
    <contour>
      <point x="384" y="106"/>
      <point x="196" y="266"/>
      <point x="196" y="541" type="curve" smooth="yes"/>
      <point x="196" y="795"/>
      <point x="359" y="979"/>
      <point x="626" y="979" type="curve" smooth="yes"/>
      <point x="868" y="979"/>
      <point x="1056" y="816"/>
      <point x="1056" y="541" type="curve" smooth="yes"/>
      <point x="1056" y="293"/>
      <point x="893" y="106"/>
      <point x="626" y="106" type="curve" smooth="yes"/>
    </contour>
    <contour>
      <point x="626" y="1084" type="move" name="top"/>
    </contour>
  </outline>
</glyph>
<glyph name="q" format="1">
  <advance width="1263"/>
  <unicode hex="0071"/>
  <outline>
    <contour>
      <point x="263" y="1104"/>
      <point x="85" y="907"/>
      <point x="85" y="548" type="curve" smooth="yes"/>
      <point x="85" y="204"/>
      <point x="262" y="-20"/>
      <point x="597" y="-20" type="curve" smooth="yes"/>
      <point x="759.384" y="-20"/>
      <point x="885.557" y="16.2107"/>
      <point x="980" y="152.09" type="curve"/>
      <point x="980" y="-477" type="line"/>
      <point x="1116" y="-477" type="line"/>
      <point x="1116" y="1085" type="line"/>
      <point x="999" y="1085" type="line"/>
      <point x="999" y="902" type="line"/>
      <point x="901" y="1046"/>
      <point x="751.681" y="1104"/>
      <point x="603" y="1104" type="curve" smooth="yes"/>
    </contour>
    <contour>
      <point x="800" y="979"/>
      <point x="980" y="822"/>
      <point x="980" y="605" type="curve" smooth="yes"/>
      <point x="980" y="437" type="line" smooth="yes"/>
      <point x="980" y="234"/>
      <point x="793" y="105"/>
      <point x="598" y="105" type="curve" smooth="yes"/>
      <point x="352" y="105"/>
      <point x="223" y="278"/>
      <point x="223" y="546" type="curve" smooth="yes"/>
      <point x="223" y="824"/>
      <point x="342" y="979"/>
      <point x="604" y="979" type="curve" smooth="yes"/>
    </contour>
  </outline>
</glyph>
<glyph name="s" format="1">
  <advance width="916"/>
  <unicode hex="0073"/>
  <outline>
    <contour>
      <point x="231" y="1104"/>
      <point x="83" y="990"/>
      <point x="83" y="822" type="curve" smooth="yes"/>
      <point x="83" y="624"/>
      <point x="230" y="571"/>
      <point x="410" y="501" type="curve" smooth="yes"/>
      <point x="525" y="456"/>
      <point x="707" y="413"/>
      <point x="707" y="278" type="curve" smooth="yes"/>
      <point x="707" y="167"/>
      <point x="613" y="105"/>
      <point x="472" y="105" type="curve" smooth="yes"/>
      <point x="304" y="105"/>
      <point x="202" y="183"/>
      <point x="166" y="337" type="curve"/>
      <point x="43" y="303" type="line"/>
      <point x="93" y="87"/>
      <point x="241" y="-20"/>
      <point x="467" y="-20" type="curve" smooth="yes"/>
      <point x="667" y="-20"/>
      <point x="845" y="78"/>
      <point x="845" y="278" type="curve" smooth="yes"/>
      <point x="845" y="506"/>
      <point x="612" y="575"/>
      <point x="478" y="621" type="curve" smooth="yes"/>
      <point x="377" y="656"/>
      <point x="221" y="714"/>
      <point x="221" y="829" type="curve" smooth="yes"/>
      <point x="221" y="927"/>
      <point x="309" y="979"/>
      <point x="470" y="979" type="curve" smooth="yes"/>
      <point x="535" y="979"/>
      <point x="590" y="966"/>
      <point x="626" y="951" type="curve" smooth="yes"/>
      <point x="661" y="936"/>
      <point x="685" y="902"/>
      <point x="684" y="855" type="curve" smooth="yes"/>
      <point x="684" y="826" type="line"/>
      <point x="812" y="826" type="line"/>
      <point x="812" y="873" type="line" smooth="yes"/>
      <point x="811" y="986"/>
      <point x="759" y="1047"/>
      <point x="671" y="1074" type="curve" smooth="yes"/>
      <point x="625" y="1088"/>
      <point x="555" y="1104"/>
      <point x="458" y="1104" type="curve" smooth="yes"/>
    </contour>
    <contour>
      <point x="458" y="1084" type="move" name="top"/>
    </contour>
    <contour>
      <point x="458" y="0" type="move" name="bottom"/>
    </contour>
  </outline>
</glyph>
<glyph name="u" format="1">
  <advance width="1304"/>
  <unicode hex="0075"/>
  <outline>
    <contour>
      <point x="58" y="959" type="line"/>
      <point x="188" y="959" type="line"/>
      <point x="188" y="367" type="line" smooth="yes"/>
      <point x="188" y="58.9999"/>
      <point x="408" y="-20"/>
      <point x="602" y="-20" type="curve" smooth="yes"/>
      <point x="777" y="-20"/>
      <point x="889" y="54"/>
      <point x="978" y="158" type="curve"/>
      <point x="972" y="162" type="line"/>
      <point x="973" y="103"/>
      <point x="983" y="61"/>
      <point x="1005" y="37" type="curve" smooth="yes"/>
      <point x="1028" y="11"/>
      <point x="1069" y="-1.99999"/>
      <point x="1128" y="-1.99999" type="curve" smooth="yes"/>
      <point x="1271" y="-1.99999" type="line"/>
      <point x="1271" y="122" type="line"/>
      <point x="1181" y="122" type="line" smooth="yes"/>
      <point x="1152" y="122"/>
      <point x="1130" y="127"/>
      <point x="1115" y="137" type="curve" smooth="yes"/>
      <point x="1100" y="147"/>
      <point x="1093" y="171"/>
      <point x="1093" y="208" type="curve" smooth="yes"/>
      <point x="1093" y="1084" type="line"/>
      <point x="957" y="1084" type="line"/>
      <point x="957" y="305.307" type="line"/>
      <point x="880.643" y="196.12"/>
      <point x="778.263" y="105"/>
      <point x="599" y="105" type="curve" smooth="yes"/>
      <point x="490" y="105"/>
      <point x="324" y="139"/>
      <point x="324" y="390" type="curve" smooth="yes"/>
      <point x="324" y="1021" type="line" smooth="yes"/>
      <point x="324" y="1042"/>
      <point x="318" y="1058"/>
      <point x="306" y="1068" type="curve" smooth="yes"/>
      <point x="294" y="1078"/>
      <point x="276" y="1083"/>
      <point x="253" y="1083" type="curve" smooth="yes"/>
      <point x="58" y="1083" type="line"/>
    </contour>
    <contour>
      <point x="1174" y="10" type="move" name="ogonek"/>
    </contour>
    <contour>
      <point x="652" y="1084" type="move" name="top"/>
    </contour>
  </outline>
</glyph>
<glyph name="y" format="1">
  <advance width="1219"/>
  <unicode hex="0079"/>
  <outline>
    <contour>
      <point x="1022" y="1084" type="line" smooth="yes"/>
      <point x="983" y="1084"/>
      <point x="959" y="1067"/>
      <point x="946" y="1031" type="curve" smooth="yes"/>
      <point x="634" y="152" type="line"/>
      <point x="283" y="1031" type="line" smooth="yes"/>
      <point x="269" y="1066"/>
      <point x="246" y="1084"/>
      <point x="207" y="1084" type="curve" smooth="yes"/>
      <point x="39" y="1084" type="line"/>
      <point x="39" y="960" type="line"/>
      <point x="150" y="960" type="line"/>
      <point x="563" y="0" type="line"/>
      <point x="497" y="-217" type="line" smooth="yes"/>
      <point x="470" y="-314"/>
      <point x="417" y="-353"/>
      <point x="336" y="-353" type="curve" smooth="yes"/>
      <point x="263" y="-353"/>
      <point x="159" y="-305"/>
      <point x="110" y="-276" type="curve"/>
      <point x="65" y="-394" type="line"/>
      <point x="127" y="-432"/>
      <point x="256" y="-477"/>
      <point x="329" y="-477" type="curve" smooth="yes"/>
      <point x="457" y="-477"/>
      <point x="537" y="-430"/>
      <point x="585" y="-329" type="curve" smooth="yes"/>
      <point x="602" y="-293"/>
      <point x="620" y="-249"/>
      <point x="639" y="-196" type="curve" smooth="yes"/>
      <point x="1073" y="962" type="line"/>
      <point x="1178" y="962" type="line"/>
      <point x="1178" y="1086" type="line"/>
    </contour>
    <contour>
      <point x="610" y="1084" type="move" name="top"/>
    </contour>
  </outline>
</glyph>
<glyph name="braceright" format="1">
  <advance width="677"/>
  <unicode hex="007D"/>
  <outline>
    <contour>
      <point x="58" y="1497" type="line"/>
      <point x="150" y="1500"/>
      <point x="217" y="1478"/>
      <point x="258" y="1432" type="curve" smooth="yes"/>
      <point x="299" y="1386"/>
      <point x="320" y="1310"/>
      <point x="320" y="1203" type="curve"/>
      <point x="299" y="894" type="line"/>
      <point x="299" y="816"/>
      <point x="336" y="757"/>
      <point x="409" y="750" type="curve"/>
      <point x="409" y="745" type="line"/>
      <point x="336" y="738"/>
      <point x="299" y="679"/>
      <point x="299" y="601" type="curve"/>
      <point x="320" y="292" type="line"/>
      <point x="320" y="185"/>
      <point x="299" y="109"/>
      <point x="258" y="64" type="curve" smooth="yes"/>
      <point x="217" y="19"/>
      <point x="150" y="-2"/>
      <point x="58" y="0.999999" type="curve"/>
      <point x="60" y="-130" type="line"/>
      <point x="201" y="-130"/>
      <point x="301" y="-96.9999"/>
      <point x="359" y="-31" type="curve" smooth="yes"/>
      <point x="417" y="35"/>
      <point x="446" y="137"/>
      <point x="446" y="275" type="curve"/>
      <point x="441" y="355"/>
      <point x="434" y="526"/>
      <point x="428" y="588" type="curve"/>
      <point x="428" y="625"/>
      <point x="443" y="652"/>
      <point x="474" y="669" type="curve" smooth="yes"/>
      <point x="505" y="686"/>
      <point x="540" y="695"/>
      <point x="579" y="695" type="curve"/>
      <point x="579" y="802" type="line"/>
      <point x="540" y="802"/>
      <point x="505" y="811"/>
      <point x="474" y="828" type="curve" smooth="yes"/>
      <point x="443" y="845"/>
      <point x="428" y="872"/>
      <point x="428" y="909" type="curve" smooth="yes"/>
      <point x="428" y="1013"/>
      <point x="444" y="1117"/>
      <point x="444" y="1221" type="curve" smooth="yes"/>
      <point x="444" y="1360"/>
      <point x="415" y="1462"/>
      <point x="357" y="1528" type="curve" smooth="yes"/>
      <point x="299" y="1594"/>
      <point x="199" y="1627"/>
      <point x="58" y="1627" type="curve"/>
    </contour>
  </outline>
</glyph>
<glyph name="asciitilde" format="1">
  <advance width="1196"/>
  <unicode hex="007E"/>
  <outline>
    <contour>
      <point x="872" y="844" type="line"/>
      <point x="872" y="752"/>
      <point x="873" y="678"/>
      <point x="772" y="678" type="curve" smooth="yes"/>
      <point x="652" y="678"/>
      <point x="587" y="834"/>
      <point x="418" y="834" type="curve" smooth="yes"/>
      <point x="266" y="834"/>
      <point x="193" y="722"/>
      <point x="193" y="550" type="curve"/>
      <point x="316" y="549" type="line"/>
      <point x="316" y="641"/>
      <point x="326" y="712"/>
      <point x="429" y="712" type="curve" smooth="yes"/>
      <point x="593" y="712"/>
      <point x="588" y="560"/>
      <point x="773" y="560" type="curve" smooth="yes"/>
      <point x="925" y="560"/>
      <point x="1004" y="672"/>
      <point x="1004" y="844" type="curve"/>
    </contour>
  </outline>
</glyph>
<glyph name="currency" format="1">
  <advance width="1278"/>
  <unicode hex="00A4"/>
  <outline>
    <contour>
      <point x="56" y="1236" type="line"/>
      <point x="290" y="999.999" type="line"/>
      <point x="233" y="925"/>
      <point x="207" y="844"/>
      <point x="207" y="748" type="curve" smooth="yes"/>
      <point x="207" y="653"/>
      <point x="234" y="572"/>
      <point x="290" y="495" type="curve"/>
      <point x="56" y="261" type="line"/>
      <point x="151" y="167" type="line"/>
      <point x="386" y="400" type="line"/>
      <point x="463" y="344"/>
      <point x="543" y="317"/>
      <point x="638" y="317" type="curve" smooth="yes"/>
      <point x="734" y="317"/>
      <point x="815" y="343"/>
      <point x="890" y="400" type="curve"/>
      <point x="1125" y="167" type="line"/>
      <point x="1220" y="261" type="line"/>
      <point x="983.999" y="495" type="line"/>
      <point x="1038" y="569"/>
      <point x="1068" y="656"/>
      <point x="1068" y="746" type="curve" smooth="yes"/>
      <point x="1068" y="838"/>
      <point x="1039" y="926"/>
      <point x="985.999" y="998.999" type="curve"/>
      <point x="1221" y="1235" type="line"/>
      <point x="1126" y="1329" type="line"/>
      <point x="893" y="1094" type="line"/>
      <point x="816" y="1151"/>
      <point x="734" y="1178"/>
      <point x="639" y="1178" type="curve" smooth="yes"/>
      <point x="545" y="1178"/>
      <point x="461" y="1151"/>
      <point x="384" y="1095" type="curve"/>
      <point x="151" y="1330" type="line"/>
    </contour>
    <contour>
      <point x="795" y="1041"/>
      <point x="930" y="906"/>
      <point x="930" y="746" type="curve" smooth="yes"/>
      <point x="930" y="587"/>
      <point x="797" y="454"/>
      <point x="637" y="454" type="curve" smooth="yes"/>
      <point x="502" y="454"/>
      <point x="344" y="556"/>
      <point x="344" y="747" type="curve" smooth="yes"/>
      <point x="344" y="907"/>
      <point x="477" y="1041"/>
      <point x="636" y="1041" type="curve" smooth="yes"/>
    </contour>
  </outline>
</glyph>
<glyph name="section" format="1">
  <advance width="1079"/>
  <unicode hex="00A7"/>
  <outline>
    <contour>
      <point x="304" y="1554"/>
      <point x="115" y="1428"/>
      <point x="115" y="1194" type="curve" smooth="yes"/>
      <point x="115" y="1019"/>
      <point x="209" y="924"/>
      <point x="370" y="847" type="curve"/>
      <point x="220" y="796"/>
      <point x="139" y="689"/>
      <point x="139" y="528" type="curve" smooth="yes"/>
      <point x="139" y="312"/>
      <point x="299" y="215"/>
      <point x="466" y="146" type="curve" smooth="yes"/>
      <point x="643" y="73"/>
      <point x="794" y="9"/>
      <point x="794" y="-153" type="curve" smooth="yes"/>
      <point x="794" y="-297"/>
      <point x="689" y="-377"/>
      <point x="526" y="-377" type="curve" smooth="yes"/>
      <point x="365" y="-377"/>
      <point x="275" y="-270"/>
      <point x="232" y="-92.9999" type="curve"/>
      <point x="90" y="-128" type="line"/>
      <point x="136" y="-369"/>
      <point x="288" y="-500"/>
      <point x="535" y="-500" type="curve" smooth="yes"/>
      <point x="771" y="-500"/>
      <point x="955" y="-374"/>
      <point x="955" y="-142" type="curve" smooth="yes"/>
      <point x="955" y="33"/>
      <point x="859" y="124"/>
      <point x="699" y="203" type="curve"/>
      <point x="847" y="255"/>
      <point x="932" y="359"/>
      <point x="933" y="521" type="curve"/>
      <point x="933" y="739"/>
      <point x="768" y="841"/>
      <point x="605" y="907" type="curve" smooth="yes"/>
      <point x="433" y="976"/>
      <point x="279" y="1051"/>
      <point x="279" y="1208" type="curve" smooth="yes"/>
      <point x="279" y="1349"/>
      <point x="386" y="1427"/>
      <point x="546" y="1427" type="curve" smooth="yes"/>
      <point x="707" y="1427"/>
      <point x="796" y="1325"/>
      <point x="836" y="1149" type="curve"/>
      <point x="978.999" y="1184" type="line"/>
      <point x="927" y="1424"/>
      <point x="779" y="1554"/>
      <point x="533" y="1554" type="curve" smooth="yes"/>
    </contour>
    <contour>
      <point x="548" y="756"/>
      <point x="566" y="754"/>
      <point x="581" y="752" type="curve"/>
      <point x="700" y="694"/>
      <point x="771" y="635"/>
      <point x="771" y="507" type="curve"/>
      <point x="772" y="383"/>
      <point x="677" y="298"/>
      <point x="545" y="298" type="curve" smooth="yes"/>
      <point x="527" y="298"/>
      <point x="506" y="300"/>
      <point x="491" y="302" type="curve"/>
      <point x="375" y="358"/>
      <point x="304" y="421"/>
      <point x="304" y="544" type="curve" smooth="yes"/>
      <point x="304" y="674"/>
      <point x="395" y="756"/>
      <point x="531" y="756" type="curve" smooth="yes"/>
    </contour>
  </outline>
</glyph>
<glyph name="dieresis" format="1">
  <advance width="986"/>
  <unicode hex="00A8"/>
  <outline>
    <contour>
      <point x="227" y="1543"/>
      <point x="181" y="1495"/>
      <point x="181" y="1438" type="curve" smooth="yes"/>
      <point x="181" y="1383"/>
      <point x="227" y="1337"/>
      <point x="282" y="1337" type="curve" smooth="yes"/>
      <point x="338" y="1337"/>
      <point x="383" y="1383"/>
      <point x="385" y="1440" type="curve"/>
      <point x="385" y="1496"/>
      <point x="338" y="1543"/>
      <point x="282" y="1543" type="curve" smooth="yes"/>
    </contour>
    <contour>
      <point x="647" y="1543"/>
      <point x="601" y="1495"/>
      <point x="601" y="1438" type="curve" smooth="yes"/>
      <point x="601" y="1383"/>
      <point x="647" y="1337"/>
      <point x="702" y="1337" type="curve" smooth="yes"/>
      <point x="758" y="1337"/>
      <point x="803" y="1383"/>
      <point x="805" y="1440" type="curve"/>
      <point x="805" y="1496"/>
      <point x="758" y="1543"/>
      <point x="702" y="1543" type="curve" smooth="yes"/>
    </contour>
    <contour>
      <point x="493" y="1084" type="move" name="_top"/>
    </contour>
  </outline>
</glyph>
<glyph name="copyright" format="1">
  <advance width="1475"/>
  <unicode hex="00A9"/>
  <outline>
    <contour>
      <point x="364" y="1577"/>
      <point x="135" y="1348"/>
      <point x="133" y="980.999" type="curve"/>
      <point x="133" y="629"/>
      <point x="380" y="367"/>
      <point x="737" y="367" type="curve" smooth="yes"/>
      <point x="1090" y="367"/>
      <point x="1342" y="630"/>
      <point x="1342" y="980.999" type="curve" smooth="yes"/>
      <point x="1342" y="1341"/>
      <point x="1111" y="1577"/>
      <point x="738" y="1577" type="curve" smooth="yes"/>
    </contour>
    <contour>
      <point x="561" y="1317"/>
      <point x="424" y="1172"/>
      <point x="424" y="983.999" type="curve"/>
      <point x="426" y="788"/>
      <point x="559" y="637"/>
      <point x="753" y="637" type="curve" smooth="yes"/>
      <point x="889" y="637"/>
      <point x="922" y="670"/>
      <point x="1006" y="750" type="curve"/>
      <point x="956" y="794" type="line"/>
      <point x="894" y="736"/>
      <point x="866" y="705"/>
      <point x="755" y="705" type="curve" smooth="yes"/>
      <point x="602" y="705"/>
      <point x="499" y="827"/>
      <point x="499" y="981.999" type="curve" smooth="yes"/>
      <point x="499" y="1137"/>
      <point x="601" y="1248"/>
      <point x="752" y="1248" type="curve" smooth="yes"/>
      <point x="827" y="1248"/>
      <point x="912" y="1233"/>
      <point x="938" y="1162" type="curve"/>
      <point x="1002" y="1178" type="line"/>
      <point x="978" y="1277"/>
      <point x="848" y="1317"/>
      <point x="748" y="1317" type="curve" smooth="yes"/>
    </contour>
    <contour>
      <point x="1061" y="1509"/>
      <point x="1267" y="1300"/>
      <point x="1267" y="976.999" type="curve" smooth="yes"/>
      <point x="1267" y="670"/>
      <point x="1054" y="432"/>
      <point x="740" y="432" type="curve" smooth="yes"/>
      <point x="431" y="432"/>
      <point x="213" y="667"/>
      <point x="213" y="976.999" type="curve" smooth="yes"/>
      <point x="213" y="978.999" type="line" smooth="yes"/>
      <point x="213" y="1299"/>
      <point x="413" y="1509"/>
      <point x="740" y="1509" type="curve" smooth="yes"/>
    </contour>
  </outline>
</glyph>
<glyph name="logicalnot" format="1">
  <advance width="1196"/>
  <unicode hex="00AC"/>
  <outline>
    <contour>
      <point x="195" y="813" type="line"/>
      <point x="195" y="682" type="line"/>
      <point x="879" y="682" type="line"/>
      <point x="879" y="399" type="line"/>
      <point x="1001" y="399" type="line"/>
      <point x="1001" y="813" type="line"/>
    </contour>
  </outline>
</glyph>
<glyph name="uni00AD" format="1">
  <advance width="992"/>
  <unicode hex="00AD"/>
  <outline>
    <contour>
      <point x="856" y="713" type="line"/>
      <point x="135" y="713" type="line"/>
      <point x="135" y="588" type="line"/>
      <point x="856" y="588" type="line"/>
    </contour>
  </outline>
</glyph>
<glyph name="registered" format="1">
  <advance width="1475"/>
  <unicode hex="00AE"/>
  <outline>
    <contour>
      <point x="362" y="1578"/>
      <point x="137" y="1346"/>
      <point x="133" y="981.999" type="curve"/>
      <point x="133" y="630"/>
      <point x="380" y="368"/>
      <point x="737" y="368" type="curve" smooth="yes"/>
      <point x="1090" y="368"/>
      <point x="1342" y="631"/>
      <point x="1342" y="981.999" type="curve" smooth="yes"/>
      <point x="1342" y="1342"/>
      <point x="1111" y="1578"/>
      <point x="738" y="1578" type="curve" smooth="yes"/>
    </contour>
    <contour>
      <point x="1061" y="1510"/>
      <point x="1267" y="1301"/>
      <point x="1267" y="977.999" type="curve" smooth="yes"/>
      <point x="1267" y="671"/>
      <point x="1054" y="433"/>
      <point x="740" y="433" type="curve" smooth="yes"/>
      <point x="431" y="433"/>
      <point x="213" y="668"/>
      <point x="213" y="977.999" type="curve" smooth="yes"/>
      <point x="213" y="979.999" type="line" smooth="yes"/>
      <point x="213" y="1300"/>
      <point x="413" y="1510"/>
      <point x="740" y="1510" type="curve" smooth="yes"/>
    </contour>
    <contour>
      <point x="480" y="1308" type="line"/>
      <point x="480" y="1249" type="line"/>
      <point x="539" y="1249" type="line"/>
      <point x="539" y="668" type="line"/>
      <point x="609" y="668" type="line"/>
      <point x="609" y="931" type="line"/>
      <point x="707" y="931" type="line" smooth="yes"/>
      <point x="776" y="931"/>
      <point x="798" y="917"/>
      <point x="817" y="867" type="curve" smooth="yes"/>
      <point x="893" y="687" type="line" smooth="yes"/>
      <point x="899" y="673"/>
      <point x="908" y="667"/>
      <point x="923" y="667" type="curve" smooth="yes"/>
      <point x="1012" y="667" type="line"/>
      <point x="1011" y="726" type="line"/>
      <point x="954" y="726" type="line"/>
      <point x="885" y="876" type="line" smooth="yes"/>
      <point x="872" y="907"/>
      <point x="856" y="930"/>
      <point x="828" y="943" type="curve"/>
      <point x="900" y="967"/>
      <point x="941" y="1035"/>
      <point x="941" y="1118" type="curve" smooth="yes"/>
      <point x="941" y="1247"/>
      <point x="868" y="1308"/>
      <point x="736" y="1308" type="curve" smooth="yes"/>
    </contour>
    <contour>
      <point x="830" y="1249"/>
      <point x="876" y="1209"/>
      <point x="876" y="1118" type="curve" smooth="yes"/>
      <point x="876" y="1028"/>
      <point x="830" y="988"/>
      <point x="740" y="987.999" type="curve" smooth="yes"/>
      <point x="613" y="987.999" type="line"/>
      <point x="613" y="1249" type="line"/>
      <point x="740" y="1249" type="line" smooth="yes"/>
    </contour>
  </outline>
</glyph>
<glyph name="macron" format="1">
  <advance width="1174"/>
  <unicode hex="00AF"/>
  <outline>
    <contour>
      <point x="229" y="1450" type="line"/>
      <point x="229" y="1323" type="line"/>
      <point x="965" y="1323" type="line"/>
      <point x="965" y="1450" type="line"/>
    </contour>
    <contour>
      <point x="597" y="1084" type="move" name="_top"/>
    </contour>
  </outline>
</glyph>
<glyph name="questiondown" format="1">
  <advance width="936"/>
  <unicode hex="00BF"/>
  <outline>
    <contour>
      <point x="466" y="826" type="line"/>
      <point x="464" y="703"/>
      <point x="421" y="593"/>
      <point x="337" y="498" type="curve" smooth="yes"/>
      <point x="226" y="375" type="line" smooth="yes"/>
      <point x="145" y="283"/>
      <point x="98" y="169"/>
      <point x="97.9999" y="51" type="curve" smooth="yes"/>
      <point x="98" y="-193"/>
      <point x="249" y="-338"/>
      <point x="496" y="-338" type="curve" smooth="yes"/>
      <point x="723" y="-338"/>
      <point x="900" y="-205"/>
      <point x="900" y="57" type="curve"/>
      <point x="759" y="57" type="line"/>
      <point x="759" y="-97"/>
      <point x="657" y="-217"/>
      <point x="500" y="-217" type="curve" smooth="yes"/>
      <point x="347" y="-217"/>
      <point x="247" y="-101"/>
      <point x="247" y="50" type="curve" smooth="yes"/>
      <point x="247" y="161"/>
      <point x="292" y="252"/>
      <point x="367" y="342" type="curve" smooth="yes"/>
      <point x="465" y="461" type="line" smooth="yes"/>
      <point x="551" y="564"/>
      <point x="583" y="688"/>
      <point x="585" y="826" type="curve"/>
    </contour>
    <contour>
      <point x="463" y="1201"/>
      <point x="416" y="1153"/>
      <point x="416" y="1092" type="curve" smooth="yes"/>
      <point x="416" y="1034"/>
      <point x="465" y="983"/>
      <point x="523" y="982.999" type="curve" smooth="yes"/>
      <point x="584" y="983"/>
      <point x="634" y="1032"/>
      <point x="634" y="1092" type="curve" smooth="yes"/>
      <point x="634" y="1153"/>
      <point x="584" y="1201"/>
      <point x="523" y="1201" type="curve" smooth="yes"/>
    </contour>
  </outline>
</glyph>
<glyph name="oslash" format="1">
  <advance width="1283"/>
  <unicode hex="00F8"/>
  <outline>
    <contour>
      <point x="902.2" y="1043.35" type="line"/>
      <point x="823.605" y="1082.27"/>
      <point x="730.834" y="1104"/>
      <point x="626" y="1104" type="curve" smooth="yes"/>
      <point x="308" y="1104"/>
      <point x="57.9999" y="893"/>
      <point x="57.9999" y="541" type="curve" smooth="yes"/>
      <point x="57.9999" y="361.175"/>
      <point x="127.508" y="205.164"/>
      <point x="251.921" y="103.815" type="curve"/>
      <point x="142" y="-55" type="line"/>
      <point x="255" y="-132" type="line"/>
      <point x="368.744" y="32.3386" type="line"/>
      <point x="443.168" y="-0.724994"/>
      <point x="529.47" y="-19"/>
      <point x="626" y="-19" type="curve" smooth="yes"/>
      <point x="944" y="-19"/>
      <point x="1194" y="190"/>
      <point x="1194" y="541" type="curve" smooth="yes"/>
      <point x="1194" y="713.723"/>
      <point x="1130.28" y="864.909"/>
      <point x="1015.65" y="966.998" type="curve"/>
      <point x="1152" y="1164" type="line"/>
      <point x="1039" y="1241" type="line"/>
    </contour>
    <contour>
      <point x="699.386" y="979"/>
      <point x="767.805" y="964.01"/>
      <point x="827.523" y="935.454" type="curve"/>
      <point x="327.739" y="213.359" type="line"/>
      <point x="246.048" y="287.837"/>
      <point x="196" y="399.111"/>
      <point x="196" y="541" type="curve" smooth="yes"/>
      <point x="196" y="795"/>
      <point x="359" y="979"/>
      <point x="626" y="979" type="curve" smooth="yes"/>
    </contour>
    <contour>
      <point x="1011.87" y="781.181"/>
      <point x="1056" y="674.236"/>
      <point x="1056" y="541" type="curve" smooth="yes"/>
      <point x="1056" y="293"/>
      <point x="893" y="106"/>
      <point x="626" y="106" type="curve" smooth="yes"/>
      <point x="560.321" y="106"/>
      <point x="498.62" y="117.785"/>
      <point x="443.575" y="140.456" type="curve"/>
      <point x="938.849" y="856.036" type="line"/>
    </contour>
    <contour>
      <point x="626" y="1084" type="move" name="top"/>
    </contour>
  </outline>
</glyph>
<glyph name="dotlessi" format="1">
  <advance width="690"/>
  <unicode hex="0131"/>
  <outline>
    <contour>
      <point x="131" y="1084" type="line"/>
      <point x="131" y="960" type="line"/>
      <point x="263" y="960" type="line"/>
      <point x="263" y="206" type="line" smooth="yes"/>
      <point x="263" y="72"/>
      <point x="304" y="0"/>
      <point x="425" y="0" type="curve" smooth="yes"/>
      <point x="555" y="0" type="line"/>
      <point x="555" y="124" type="line"/>
      <point x="485" y="124" type="line" smooth="yes"/>
      <point x="420" y="124"/>
      <point x="399" y="147"/>
      <point x="399" y="217" type="curve" smooth="yes"/>
      <point x="399" y="1019" type="line" smooth="yes"/>
      <point x="399" y="1040"/>
      <point x="393" y="1056"/>
      <point x="382" y="1067" type="curve" smooth="yes"/>
      <point x="371" y="1078"/>
      <point x="355" y="1084"/>
      <point x="334" y="1084" type="curve" smooth="yes"/>
    </contour>
    <contour>
      <point x="621" y="10" type="move" name="ogonek"/>
    </contour>
    <contour>
      <point x="345" y="1084" type="move" name="top"/>
    </contour>
  </outline>
</glyph>
<glyph name="OE" format="1">
  <advance width="1947"/>
  <unicode hex="0152"/>
  <outline>
    <contour>
      <point x="381" y="1530"/>
      <point x="40" y="1234"/>
      <point x="40" y="753" type="curve" smooth="yes"/>
      <point x="40" y="321"/>
      <point x="334" y="-20"/>
      <point x="815" y="-20" type="curve" smooth="yes"/>
      <point x="881.267" y="-20"/>
      <point x="945.233" y="-13.0954"/>
      <point x="1005.71" y="0" type="curve"/>
      <point x="1786" y="0" type="line" smooth="yes"/>
      <point x="1807" y="0"/>
      <point x="1823" y="5"/>
      <point x="1834" y="16" type="curve" smooth="yes"/>
      <point x="1845" y="27"/>
      <point x="1850" y="43"/>
      <point x="1850" y="64" type="curve" smooth="yes"/>
      <point x="1850" y="261" type="line"/>
      <point x="1712" y="261" type="line"/>
      <point x="1712" y="131" type="line"/>
      <point x="1153" y="131" type="line"/>
      <point x="1153" y="695" type="line"/>
      <point x="1735" y="695" type="line"/>
      <point x="1735" y="825" type="line"/>
      <point x="1153" y="825" type="line"/>
      <point x="1153" y="1366" type="line"/>
      <point x="1712" y="1366" type="line"/>
      <point x="1712" y="1236" type="line"/>
      <point x="1850" y="1236" type="line"/>
      <point x="1850" y="1433" type="line" smooth="yes"/>
      <point x="1850" y="1454"/>
      <point x="1845" y="1470"/>
      <point x="1835" y="1480" type="curve" smooth="yes"/>
      <point x="1825" y="1490"/>
      <point x="1810" y="1495"/>
      <point x="1789" y="1495" type="curve" smooth="yes"/>
      <point x="1066.17" y="1495" type="line"/>
      <point x="989.564" y="1517.76"/>
      <point x="905.953" y="1530"/>
      <point x="815" y="1530" type="curve" smooth="yes"/>
    </contour>
    <contour>
      <point x="884.726" y="1394"/>
      <point x="951.806" y="1384.62"/>
      <point x="1013.74" y="1366.25" type="curve"/>
      <point x="1014" y="143.131" type="line"/>
      <point x="953.271" y="125.611"/>
      <point x="886.18" y="116"/>
      <point x="814" y="116" type="curve" smooth="yes"/>
      <point x="460" y="116"/>
      <point x="190" y="356"/>
      <point x="190" y="754" type="curve" smooth="yes"/>
      <point x="190" y="1120"/>
      <point x="425" y="1394"/>
      <point x="814" y="1394" type="curve" smooth="yes"/>
    </contour>
  </outline>
</glyph>
<glyph name="florin" format="1">
  <advance width="978"/>
  <unicode hex="0192"/>
  <outline>
    <contour>
      <point x="576" y="1524"/>
      <point x="470" y="1482"/>
      <point x="405" y="1399" type="curve" smooth="yes"/>
      <point x="340" y="1316"/>
      <point x="307" y="1194"/>
      <point x="307" y="1033" type="curve" smooth="yes"/>
      <point x="307" y="784" type="line"/>
      <point x="78" y="784" type="line"/>
      <point x="78" y="654" type="line"/>
      <point x="307" y="654" type="line"/>
      <point x="307" y="-476" type="line"/>
      <point x="471" y="-464" type="line"/>
      <point x="471" y="654" type="line"/>
      <point x="838" y="654" type="line"/>
      <point x="838" y="783" type="line"/>
      <point x="471" y="783" type="line"/>
      <point x="471" y="1032" type="line" smooth="yes"/>
      <point x="471" y="1152"/>
      <point x="491" y="1243"/>
      <point x="531" y="1305" type="curve" smooth="yes"/>
      <point x="571" y="1367"/>
      <point x="638" y="1398"/>
      <point x="732" y="1398" type="curve" smooth="yes"/>
      <point x="797" y="1398"/>
      <point x="865" y="1383"/>
      <point x="916" y="1349" type="curve"/>
      <point x="959" y="1469" type="line"/>
      <point x="892" y="1507"/>
      <point x="807" y="1524"/>
      <point x="723" y="1524" type="curve" smooth="yes"/>
    </contour>
  </outline>
</glyph>
<glyph name="uni021A" format="1">
  <advance width="1143"/>
  <unicode hex="021A"/>
  <outline>
    <contour>
      <point x="102" y="1494" type="line" smooth="yes"/>
      <point x="57" y="1494"/>
      <point x="38" y="1477"/>
      <point x="39" y="1432" type="curve"/>
      <point x="39" y="1235" type="line"/>
      <point x="175" y="1235" type="line"/>
      <point x="175" y="1365" type="line"/>
      <point x="488" y="1365" type="line"/>
      <point x="488" y="0" type="line"/>
      <point x="634" y="0" type="line"/>
      <point x="634" y="1365" type="line"/>
      <point x="948" y="1365" type="line"/>
      <point x="948" y="1235" type="line"/>
      <point x="1084" y="1235" type="line"/>
      <point x="1084" y="1432" type="line" smooth="yes"/>
      <point x="1084" y="1475"/>
      <point x="1063" y="1494"/>
      <point x="1020" y="1494" type="curve" smooth="yes"/>
    </contour>
    <contour>
      <point x="503" y="-141"/>
      <point x="448" y="-171"/>
      <point x="448" y="-252" type="curve" smooth="yes"/>
      <point x="448" y="-334"/>
      <point x="492" y="-368"/>
      <point x="492" y="-419" type="curve" smooth="yes"/>
      <point x="492" y="-470"/>
      <point x="456" y="-514"/>
      <point x="396" y="-569" type="curve"/>
      <point x="447" y="-623" type="line"/>
      <point x="507" y="-577"/>
      <point x="550" y="-541"/>
      <point x="601" y="-466" type="curve" smooth="yes"/>
      <point x="654" y="-388"/>
      <point x="670" y="-327"/>
      <point x="670" y="-274" type="curve" smooth="yes"/>
      <point x="670" y="-167"/>
      <point x="604" y="-141"/>
      <point x="560" y="-141" type="curve" smooth="yes"/>
    </contour>
  </outline>
</glyph>
<glyph name="tilde" format="1">
  <advance width="856"/>
  <unicode hex="02DC"/>
  <outline>
    <contour>
      <point x="644" y="1532"/>
      <point x="631" y="1509"/>
      <point x="615" y="1494" type="curve" smooth="yes"/>
      <point x="599" y="1479"/>
      <point x="580" y="1471"/>
      <point x="558" y="1471" type="curve" smooth="yes"/>
      <point x="544" y="1471"/>
      <point x="467" y="1496"/>
      <point x="431" y="1508" type="curve" smooth="yes"/>
      <point x="391" y="1520"/>
      <point x="306" y="1543"/>
      <point x="282" y="1543" type="curve" smooth="yes"/>
      <point x="237" y="1543"/>
      <point x="202" y="1525"/>
      <point x="174" y="1494" type="curve" smooth="yes"/>
      <point x="142" y="1459"/>
      <point x="120" y="1408"/>
      <point x="104" y="1349" type="curve"/>
      <point x="201" y="1320" type="line"/>
      <point x="209" y="1349"/>
      <point x="221" y="1371"/>
      <point x="237" y="1386" type="curve" smooth="yes"/>
      <point x="253" y="1401"/>
      <point x="273" y="1408"/>
      <point x="297" y="1408" type="curve" smooth="yes"/>
      <point x="311" y="1408"/>
      <point x="439" y="1366"/>
      <point x="509" y="1346" type="curve" smooth="yes"/>
      <point x="537" y="1338"/>
      <point x="558" y="1334"/>
      <point x="571" y="1334" type="curve" smooth="yes"/>
      <point x="614" y="1334"/>
      <point x="650" y="1350"/>
      <point x="679" y="1383" type="curve" smooth="yes"/>
      <point x="708" y="1416"/>
      <point x="731" y="1465"/>
      <point x="748" y="1530" type="curve"/>
      <point x="653" y="1562" type="line"/>
    </contour>
    <contour>
      <point x="427" y="1084" type="move" name="_top"/>
    </contour>
  </outline>
</glyph>
<glyph name="emdash" format="1">
  <advance width="1855"/>
  <unicode hex="2014"/>
  <outline>
    <contour>
      <point x="1718" y="707" type="line"/>
      <point x="135" y="707" type="line"/>
      <point x="135" y="594" type="line"/>
      <point x="1718" y="594" type="line"/>
    </contour>
  </outline>
</glyph>
<glyph name="quoteleft" format="1">
  <advance width="477"/>
  <unicode hex="2018"/>
  <outline>
    <contour>
      <point x="256" y="1087"/>
      <point x="311" y="1117"/>
      <point x="311" y="1198" type="curve" smooth="yes"/>
      <point x="311" y="1280"/>
      <point x="267" y="1314"/>
      <point x="267" y="1365" type="curve" smooth="yes"/>
      <point x="267" y="1416"/>
      <point x="303" y="1460"/>
      <point x="363" y="1515" type="curve"/>
      <point x="312" y="1569" type="line"/>
      <point x="252" y="1523"/>
      <point x="209" y="1487"/>
      <point x="158" y="1412" type="curve" smooth="yes"/>
      <point x="105" y="1334"/>
      <point x="89" y="1273"/>
      <point x="89" y="1220" type="curve" smooth="yes"/>
      <point x="89" y="1113"/>
      <point x="155" y="1087"/>
      <point x="199" y="1087" type="curve" smooth="yes"/>
    </contour>
  </outline>
</glyph>
<glyph name="quotedblbase" format="1">
  <advance width="870"/>
  <unicode hex="201E"/>
  <outline>
    <contour>
      <point x="203" y="209"/>
      <point x="148" y="179"/>
      <point x="148" y="98" type="curve" smooth="yes"/>
      <point x="148" y="16"/>
      <point x="192" y="-18"/>
      <point x="192" y="-69" type="curve" smooth="yes"/>
      <point x="192" y="-120"/>
      <point x="156" y="-164"/>
      <point x="96" y="-219" type="curve"/>
      <point x="147" y="-273" type="line"/>
      <point x="207" y="-227"/>
      <point x="250" y="-191"/>
      <point x="301" y="-116" type="curve" smooth="yes"/>
      <point x="354" y="-38"/>
      <point x="370" y="23"/>
      <point x="370" y="76" type="curve" smooth="yes"/>
      <point x="370" y="183"/>
      <point x="304" y="209"/>
      <point x="260" y="209" type="curve" smooth="yes"/>
    </contour>
    <contour>
      <point x="553" y="209"/>
      <point x="498" y="179"/>
      <point x="498" y="98" type="curve" smooth="yes"/>
      <point x="498" y="16"/>
      <point x="542" y="-18"/>
      <point x="542" y="-69" type="curve" smooth="yes"/>
      <point x="542" y="-120"/>
      <point x="506" y="-164"/>
      <point x="446" y="-219" type="curve"/>
      <point x="497" y="-273" type="line"/>
      <point x="557" y="-227"/>
      <point x="600" y="-191"/>
      <point x="651" y="-116" type="curve" smooth="yes"/>
      <point x="704" y="-38"/>
      <point x="720" y="23"/>
      <point x="720" y="76" type="curve" smooth="yes"/>
      <point x="720" y="183"/>
      <point x="654" y="209"/>
      <point x="610" y="209" type="curve" smooth="yes"/>
    </contour>
  </outline>
</glyph>
<glyph name="ellipsis" format="1">
  <advance width="1610"/>
  <unicode hex="2026"/>
  <outline>
    <contour>
      <point x="1280.21" y="210"/>
      <point x="1229" y="156.362"/>
      <point x="1229" y="94" type="curve"/>
      <point x="1229" y="32.4223"/>
      <point x="1279.42" y="-18"/>
      <point x="1341" y="-18" type="curve"/>
      <point x="1403.36" y="-18"/>
      <point x="1457" y="33.2148"/>
      <point x="1457" y="94" type="curve"/>
      <point x="1457" y="157.29"/>
      <point x="1418.14" y="210"/>
      <point x="1341" y="210" type="curve"/>
    </contour>
    <contour>
      <point x="207.215" y="210"/>
      <point x="156" y="156.362"/>
      <point x="156" y="94" type="curve"/>
      <point x="156" y="32.4223"/>
      <point x="206.422" y="-18"/>
      <point x="268" y="-18" type="curve"/>
      <point x="330.362" y="-18"/>
      <point x="384" y="33.2148"/>
      <point x="384" y="94" type="curve"/>
      <point x="384" y="157.29"/>
      <point x="345.145" y="210"/>
      <point x="268" y="210" type="curve"/>
    </contour>
    <contour>
      <point x="744.215" y="210"/>
      <point x="693" y="156.362"/>
      <point x="693" y="94" type="curve"/>
      <point x="693" y="32.422"/>
      <point x="743.422" y="-18"/>
      <point x="805" y="-18" type="curve"/>
      <point x="867.362" y="-18"/>
      <point x="921" y="33.215"/>
      <point x="921" y="94" type="curve"/>
      <point x="921" y="157"/>
      <point x="882" y="210"/>
      <point x="805" y="210" type="curve"/>
    </contour>
  </outline>
</glyph>
<glyph name="perthousand" format="1">
  <advance width="2423"/>
  <unicode hex="2030"/>
  <outline>
    <contour>
      <point x="1026" y="1628" type="line"/>
      <point x="535" y="-135" type="line"/>
      <point x="662" y="-135" type="line"/>
      <point x="1153" y="1628" type="line"/>
    </contour>
    <contour>
      <point x="555" y="1436"/>
      <point x="601" y="1276"/>
      <point x="601" y="1123" type="curve" smooth="yes"/>
      <point x="601" y="956"/>
      <point x="564" y="812"/>
      <point x="429" y="812" type="curve" smooth="yes"/>
      <point x="305" y="812"/>
      <point x="255" y="968"/>
      <point x="255" y="1131" type="curve" smooth="yes"/>
      <point x="255" y="1286"/>
      <point x="299" y="1436"/>
      <point x="425" y="1436" type="curve" smooth="yes"/>
    </contour>
    <contour>
      <point x="214" y="1536"/>
      <point x="124" y="1365"/>
      <point x="124" y="1134" type="curve" smooth="yes"/>
      <point x="124" y="903"/>
      <point x="225" y="713"/>
      <point x="435" y="713" type="curve"/>
      <point x="644" y="717"/>
      <point x="734" y="882"/>
      <point x="734" y="1117" type="curve" smooth="yes"/>
      <point x="734" y="1352"/>
      <point x="635" y="1536"/>
      <point x="423" y="1536" type="curve" smooth="yes"/>
    </contour>
    <contour>
      <point x="1387" y="705"/>
      <point x="1433" y="545"/>
      <point x="1433" y="392" type="curve" smooth="yes"/>
      <point x="1433" y="225"/>
      <point x="1396" y="81"/>
      <point x="1261" y="81" type="curve" smooth="yes"/>
      <point x="1137" y="81"/>
      <point x="1087" y="237"/>
      <point x="1087" y="400" type="curve" smooth="yes"/>
      <point x="1087" y="555"/>
      <point x="1131" y="705"/>
      <point x="1257" y="705" type="curve" smooth="yes"/>
    </contour>
    <contour>
      <point x="1046" y="805"/>
      <point x="956" y="634"/>
      <point x="956" y="403" type="curve" smooth="yes"/>
      <point x="956" y="172"/>
      <point x="1057" y="-18"/>
      <point x="1267" y="-18" type="curve"/>
      <point x="1476" y="-14"/>
      <point x="1566" y="151"/>
      <point x="1566" y="386" type="curve" smooth="yes"/>
      <point x="1566" y="621"/>
      <point x="1467" y="805"/>
      <point x="1255" y="805" type="curve" smooth="yes"/>
    </contour>
    <contour>
      <point x="2121" y="705"/>
      <point x="2167" y="545"/>
      <point x="2167" y="392" type="curve" smooth="yes"/>
      <point x="2167" y="225"/>
      <point x="2130" y="81"/>
      <point x="1995" y="81" type="curve" smooth="yes"/>
      <point x="1871" y="81"/>
      <point x="1821" y="237"/>
      <point x="1821" y="400" type="curve" smooth="yes"/>
      <point x="1821" y="555"/>
      <point x="1865" y="705"/>
      <point x="1991" y="705" type="curve" smooth="yes"/>
    </contour>
    <contour>
      <point x="1780" y="805"/>
      <point x="1690" y="634"/>
      <point x="1690" y="403" type="curve" smooth="yes"/>
      <point x="1690" y="172"/>
      <point x="1791" y="-18"/>
      <point x="2001" y="-18" type="curve"/>
      <point x="2210" y="-14"/>
      <point x="2300" y="151"/>
      <point x="2300" y="386" type="curve" smooth="yes"/>
      <point x="2300" y="621"/>
      <point x="2201" y="805"/>
      <point x="1989" y="805" type="curve" smooth="yes"/>
    </contour>
  </outline>
</glyph>
<glyph name="Euro" format="1">
  <advance width="1272"/>
  <unicode hex="20AC"/>
  <outline>
    <contour>
      <point x="535" y="1522"/>
      <point x="408" y="1471"/>
      <point x="314" y="1368" type="curve" smooth="yes"/>
      <point x="220" y="1265"/>
      <point x="161" y="1120"/>
      <point x="136" y="933" type="curve"/>
      <point x="-0.999999" y="933" type="line"/>
      <point x="-0.999999" y="820" type="line"/>
      <point x="126" y="820" type="line"/>
      <point x="125" y="797"/>
      <point x="124" y="775"/>
      <point x="124" y="752" type="curve" smooth="yes"/>
      <point x="124" y="729"/>
      <point x="125" y="705"/>
      <point x="128" y="682" type="curve"/>
      <point x="-0.999999" y="682" type="line"/>
      <point x="-0.999999" y="568" type="line"/>
      <point x="138" y="568" type="line"/>
      <point x="149" y="490"/>
      <point x="168" y="413"/>
      <point x="195" y="336" type="curve" smooth="yes"/>
      <point x="222" y="259"/>
      <point x="258" y="194"/>
      <point x="303" y="141" type="curve" smooth="yes"/>
      <point x="347" y="88"/>
      <point x="401" y="46"/>
      <point x="465" y="15" type="curve" smooth="yes"/>
      <point x="529" y="-16"/>
      <point x="605" y="-32"/>
      <point x="694" y="-32" type="curve" smooth="yes"/>
      <point x="812" y="-32"/>
      <point x="910" y="-3"/>
      <point x="986.999" y="55" type="curve" smooth="yes"/>
      <point x="1064" y="113"/>
      <point x="1135" y="204"/>
      <point x="1200" y="329" type="curve"/>
      <point x="1062" y="366" type="line"/>
      <point x="1007" y="271"/>
      <point x="953" y="202"/>
      <point x="899" y="159" type="curve" smooth="yes"/>
      <point x="845" y="116"/>
      <point x="777" y="93.9999"/>
      <point x="695" y="93.9999" type="curve" smooth="yes"/>
      <point x="588" y="93.9999"/>
      <point x="502" y="135"/>
      <point x="437" y="218" type="curve" smooth="yes"/>
      <point x="372" y="301"/>
      <point x="328" y="418"/>
      <point x="305" y="570" type="curve"/>
      <point x="882" y="570" type="line"/>
      <point x="882" y="684" type="line"/>
      <point x="293" y="684" type="line"/>
      <point x="291" y="704"/>
      <point x="289" y="731"/>
      <point x="289" y="755" type="curve" smooth="yes"/>
      <point x="289" y="774"/>
      <point x="290" y="800"/>
      <point x="291" y="822" type="curve"/>
      <point x="882" y="822" type="line"/>
      <point x="882" y="935" type="line"/>
      <point x="299" y="935" type="line"/>
      <point x="320" y="1086"/>
      <point x="363" y="1201"/>
      <point x="429" y="1280" type="curve" smooth="yes"/>
      <point x="495" y="1359"/>
      <point x="584" y="1399"/>
      <point x="696" y="1399" type="curve" smooth="yes"/>
      <point x="762" y="1399"/>
      <point x="829" y="1389"/>
      <point x="896" y="1370" type="curve" smooth="yes"/>
      <point x="963" y="1351"/>
      <point x="1031" y="1322"/>
      <point x="1100" y="1283" type="curve"/>
      <point x="1153" y="1406" type="line"/>
      <point x="1076" y="1445"/>
      <point x="998.999" y="1474"/>
      <point x="923" y="1493" type="curve" smooth="yes"/>
      <point x="847" y="1512"/>
      <point x="771" y="1522"/>
      <point x="696" y="1522" type="curve" smooth="yes"/>
    </contour>
  </outline>
</glyph>
<glyph name="trademark" format="1">
  <advance width="1784"/>
  <unicode hex="2122"/>
  <outline>
    <contour>
      <point x="1442" y="1575" type="line" smooth="yes"/>
      <point x="1429" y="1575"/>
      <point x="1418" y="1572"/>
      <point x="1410" y="1566" type="curve" smooth="yes"/>
      <point x="1402" y="1560"/>
      <point x="1395" y="1551"/>
      <point x="1390" y="1538" type="curve"/>
      <point x="1177" y="919" type="line"/>
      <point x="971.999" y="1536" type="line"/>
      <point x="966" y="1564"/>
      <point x="952" y="1574"/>
      <point x="923" y="1574" type="curve" smooth="yes"/>
      <point x="816" y="1575" type="line"/>
      <point x="816" y="692" type="line"/>
      <point x="909" y="692" type="line"/>
      <point x="909" y="1438" type="line"/>
      <point x="1120" y="788" type="line"/>
      <point x="1235" y="788" type="line"/>
      <point x="1456" y="1438" type="line"/>
      <point x="1456" y="692" type="line"/>
      <point x="1550" y="692" type="line"/>
      <point x="1550" y="1575" type="line"/>
    </contour>
    <contour>
      <point x="140" y="1575" type="line"/>
      <point x="140" y="1489" type="line"/>
      <point x="359" y="1489" type="line"/>
      <point x="359" y="692" type="line"/>
      <point x="460" y="692" type="line"/>
      <point x="460" y="1489" type="line"/>
      <point x="680" y="1489" type="line"/>
      <point x="680" y="1575" type="line"/>
    </contour>
  </outline>
</glyph>
<glyph name="glyph00228" format="1">
  <advance width="672"/>
  <outline>
    <contour>
      <point x="594" y="938" type="line"/>
      <point x="78" y="731" type="line"/>
      <point x="78" y="589" type="line"/>
      <point x="594" y="796" type="line"/>
    </contour>
  </outline>
</glyph>
<glyph name="glyph00230" format="1">
  <advance width="480"/>
  <outline>
    <contour>
      <point x="384" y="1712" type="line"/>
      <point x="262" y="1712" type="line"/>
      <point x="95.9999" y="-215" type="line"/>
      <point x="218" y="-215" type="line"/>
    </contour>
  </outline>
</glyph>
